<svg xmlns="http://www.w3.org/2000/svg" xmlns:xlink="http://www.w3.org/1999/xlink" viewBox="0,0,256,256" width="480px" height="480px" fill-rule="nonzero"><g fill="none" fill-rule="nonzero" stroke="none" stroke-width="none" stroke-linecap="none" stroke-linejoin="none" stroke-miterlimit="10" stroke-dasharray="" stroke-dashoffset="0" font-family="none" font-weight="none" font-size="none" text-anchor="none" style="mix-blend-mode: normal"><g transform="scale(5.33333,5.33333)"><circle cx="19" cy="26" r="2" fill="#a0a0a0" stroke="none" stroke-width="1" stroke-linecap="butt" stroke-linejoin="miter"></circle><circle cx="29" cy="26" r="2" fill="#a0a0a0" stroke="none" stroke-width="1" stroke-linecap="butt" stroke-linejoin="miter"></circle><path d="M19.2,6.2c-5.6,1.6 -8.7,6 -8.7,12.3v4.4c-1.2,0.6 -2,1.7 -2,3.1c0,1.9 1.6,3.5 3.5,3.5c0,0 0,0 0.1,0c1.6,7.5 6.3,13 11.9,13c5.6,0 10.4,-5.5 11.9,-13c0,0 0,0 0.1,0c1.9,0 3.5,-1.6 3.5,-3.5c0,-1.4 -0.8,-2.6 -2,-3.1" fill="none" stroke="#a0a0a0" stroke-width="3" stroke-linecap="round" stroke-linejoin="round"></path><path d="M16.5,16.5c1.9,-1.5 2.5,-3 2.5,-3c0,0 3,3 11,3c3.3,0 6,-0.5 7.4,-0.9c0.9,-0.3 1.4,-1.3 1,-2.2c-2.1,-4.3 -6.4,-7.4 -12.4,-7.8" fill="none" stroke="#a0a0a0" stroke-width="3" stroke-linecap="round" stroke-linejoin="round"></path></g></g></svg>